<?xml version="1.0" encoding="UTF-8"?>
<!DOCTYPE svg PUBLIC "-//W3C//DTD SVG 1.1//EN" "http://www.w3.org/Graphics/SVG/1.1/DTD/svg11.dtd">
<!-- Creator: CorelDRAW 2019 (64-Bit) -->
<svg xmlns="http://www.w3.org/2000/svg" xml:space="preserve" width="2358px" height="2358px" version="1.1" style="shape-rendering:geometricPrecision; text-rendering:geometricPrecision; image-rendering:optimizeQuality; fill-rule:evenodd; clip-rule:evenodd"
viewBox="0 0 2359.09 2359.09"
 xmlns:xlink="http://www.w3.org/1999/xlink"
 xmlns:xodm="http://www.corel.com/coreldraw/odm/2003">
 <defs>
  <style type="text/css">
   <![CDATA[
    .fil1 {fill:#07ACEC}
    .fil2 {fill:#85CA39}
    .fil3 {fill:#C80025}
    .fil0 {fill:#FFBF06}
   ]]>
  </style>
 </defs>
 <g id="Capa_x0020_1">
  <metadata id="CorelCorpID_0Corel-Layer"/>
  <path class="fil0" d="M1487.02 1513.99c104.32,87.82 170.61,219.34 170.61,366.36 0,264.4 -214.33,478.74 -478.72,478.74 -264.41,0 -478.74,-214.34 -478.74,-478.74 0,-147.01 66.29,-278.51 170.57,-366.33l165.91 -165.9c38.34,33.07 88.26,53.09 142.87,53.09 54.29,0 103.96,-19.78 142.2,-52.52l165.3 165.3zm-430.53 -185.71l122.41 -122.41 122.98 122.98c-33.12,27.7 -75.79,44.39 -122.36,44.39 -46.88,0 -89.81,-16.91 -123.03,-44.96z"/>
  <path class="fil1" d="M1513.99 869.89c87.82,-104.31 219.34,-170.61 366.36,-170.61 264.4,0 478.74,214.33 478.74,478.73 0,264.4 -214.34,478.73 -478.74,478.73 -147.01,0 -278.51,-66.28 -366.33,-170.57l-165.18 -165.18c30.92,-37.73 49.48,-85.99 49.48,-138.58 0,-54.83 -20.18,-104.95 -53.5,-143.34l169.17 -169.18zm-185.04 431.21l-123.08 -123.08 119.11 -119.12c28.3,33.29 45.37,76.4 45.37,123.51 0,44.87 -15.49,86.11 -41.4,118.69z"/>
  <path class="fil2" d="M1487.02 845.1c104.32,-87.82 170.61,-219.34 170.61,-366.37 0,-264.4 -214.33,-478.73 -478.72,-478.73 -264.41,0 -478.74,214.33 -478.74,478.73 0,147.01 66.29,278.52 170.57,366.34l169.02 169.01c37.91,-31.51 86.62,-50.46 139.76,-50.46 52.83,0 101.29,18.72 139.09,49.89l168.41 -168.41zm-288.4 -109.24l5.98 0.18c-1.88,-18.98 -9.55,-81.9 -11.12,-110.05 -1.85,-33.11 10.47,-43.17 10.47,-48.52 0,-5.34 -3.08,-4.11 -10.9,0.42 -7.82,4.53 -27.56,3.49 -32.29,-1.44 -4.73,-4.94 -8.43,1.02 -2.66,16.25 5.76,15.22 6.79,24.06 5.55,63.54 -1.01,32.12 -6.62,65.08 -8.47,80.22 3.73,-0.2 7.48,-0.36 11.25,-0.48 4.1,-15.38 10.34,-65.07 14.5,-59.81 4.73,5.96 16.25,51.4 17.69,59.68l0 0.01zm189.9 -537.49c0,0 -68.19,16.04 -124.1,62.24 -55.91,46.21 -8.37,107.9 35.01,99.03 43.36,-8.88 114.03,-163.77 89.09,-161.27zm-428.07 -2.51c0,0 68.19,16.04 124.1,62.25 55.91,46.21 8.37,107.9 -35.01,99.02 -43.37,-8.88 -114.03,-163.76 -89.09,-161.27zm210.69 -84.37c0,0 -38.66,58.41 -47.71,130.38 -9.04,71.97 67.86,84.31 93.36,48.12 25.5,-36.2 -29.2,-197.41 -45.65,-178.5zm319.11 321.48c0,0 -58.41,38.66 -130.38,47.71 -71.96,9.05 -84.31,-67.86 -48.11,-93.36 36.19,-25.5 197.4,29.2 178.49,45.65zm-622.69 5.72c0,0 58.4,38.66 130.37,47.7 71.97,9.05 84.31,-67.86 48.12,-93.35 -36.19,-25.5 -197.41,29.19 -178.49,45.65zm384.84 301.03c93.55,11.32 173.42,45.69 222.92,92.97 -72.16,-43.72 -178.09,-71.33 -296.16,-71.33 -102.35,0 -195.57,20.75 -265.59,54.76 48.22,-37.48 117.01,-64.72 196.05,-75.43 4.02,-9.5 8.51,-25.86 11.61,-54 6.99,-63.34 17.29,-117.22 -1.22,-185.49 -18.51,-68.27 -68.68,-116.8 -69.91,-128.31 -1.23,-11.52 21.39,-0.83 41.13,23.85 12.91,16.13 29.52,38.07 51.77,51.78 -6.63,-8.27 -10.6,-18.77 -10.6,-30.2 0,-26.69 21.63,-48.33 48.32,-48.33 26.7,0 48.33,21.64 48.33,48.33 0,12.89 -5.04,24.59 -13.27,33.26 21.18,-15.05 33.57,-43.93 50.65,-61.01 24.27,-24.27 40.31,-25.91 38.25,-16.86 -2.06,9.04 -67.02,83.07 -73.6,139.01 -6.57,55.93 -7,151.75 5.76,191.64 5.34,16.73 10.91,27.96 15.56,35.36zm-73.44 -225.17c10.06,0 18.2,8.14 18.2,18.2 0,10.05 -8.14,18.19 -18.2,18.19 -10.05,0 -18.2,-8.14 -18.2,-18.19 0,-10.06 8.15,-18.2 18.2,-18.2zm-119.33 519.4l119.27 119.27 119.83 -119.82c-32.67,-26.17 -74.11,-41.82 -119.21,-41.82 -45.42,0 -87.12,15.88 -119.89,42.37z"/>
  <path class="fil3" d="M845.1 869.89c-87.82,-104.31 -219.34,-170.61 -366.37,-170.61 -264.4,0 -478.73,214.33 -478.73,478.73 0,264.4 214.33,478.73 478.73,478.73 147.01,0 278.52,-66.28 366.34,-170.57l165.15 -165.16c-30.93,-37.73 -49.5,-86 -49.5,-138.6 0,-54.84 20.19,-104.97 53.53,-143.37l-169.15 -169.15zm185.01 431.23l123.11 -123.1 -119.14 -119.14c-28.3,33.28 -45.39,76.41 -45.39,123.53 0,44.88 15.5,86.13 41.42,118.71z"/>
 </g>
</svg>
